<?xml version="1.0" standalone="no"?>
<!DOCTYPE svg PUBLIC "-//W3C//DTD SVG 20010904//EN"
 "http://www.w3.org/TR/2001/REC-SVG-20010904/DTD/svg10.dtd">
<svg version="1.0" xmlns="http://www.w3.org/2000/svg"
 width="190.000000pt" height="220.000000pt" viewBox="0 0 190.000000 220.000000"
 preserveAspectRatio="xMidYMid meet">

<g transform="translate(0.000000,220.000000) scale(0.100000,-0.100000)"
fill="#000000" stroke="none">
<path d="M795 2098 c-77 -45 -225 -132 -330 -194 -104 -61 -248 -144 -320
-183 -71 -39 -133 -77 -137 -84 -4 -7 -8 -249 -8 -539 l0 -527 22 -24 c20 -21
308 -192 768 -454 80 -46 152 -83 160 -83 9 0 121 61 250 136 129 75 287 165
350 201 212 120 305 176 328 197 l23 20 -3 524 c-1 338 -6 531 -13 544 -5 11
-53 43 -105 71 -52 27 -171 96 -265 152 -304 182 -554 325 -567 325 -7 0 -76
-37 -153 -82z m646 -399 c113 -38 167 -152 120 -254 -45 -99 -156 -138 -252
-89 -31 15 -77 68 -90 101 l-9 23 -225 0 -225 0 0 -235 0 -235 85 0 84 0 35
54 c72 113 204 128 292 34 136 -143 -21 -369 -203 -293 -48 20 -71 41 -94 88
l-19 37 -90 0 -90 0 -2 -242 -3 -243 -35 0 -35 0 -3 243 -2 242 -70 0 -70 0
-19 -37 c-23 -47 -46 -68 -94 -88 -112 -47 -241 28 -254 149 -7 62 11 108 61
154 93 85 231 60 286 -52 l22 -46 69 0 69 0 0 275 0 275 265 0 265 0 19 38
c25 49 60 80 108 97 47 17 61 18 104 4z"/>
<path d="M1346 1615 c-43 -23 -55 -45 -56 -96 0 -72 54 -118 125 -105 47 9 85
57 85 107 0 78 -86 131 -154 94z"/>
<path d="M304 1070 c-31 -12 -54 -55 -54 -100 0 -61 41 -100 105 -100 38 0 52
5 76 29 65 65 21 182 -68 180 -21 0 -47 -4 -59 -9z"/>
<path d="M1049 1051 c-24 -24 -29 -38 -29 -76 0 -38 5 -52 29 -76 24 -24 38
-29 76 -29 38 0 52 5 76 29 24 24 29 38 29 76 0 40 -5 52 -31 76 -44 41 -108
41 -150 0z"/>
</g>
</svg>
